#!OML:ASF E:\emotionWalksFemale\Project 1\Capture day 1\Session 1\Female1.ASF
:FULLY-SPECIFIED
:DEGREES
204
root 9.10839 12.1563 22.5741 211.349 -1.63491 -178.573
lowerback 38.3589 1.17446 1.21801
upperback 0.764435 1.29838 0.408402
thorax -18.4186 0.113785 -0.707423
lowerneck -10.5106 -2.29829 -6.83609
upperneck -20.7519 -4.24276 8.76635
head -4.20408 -3.31265 4.01302
rclavicle -1.17283e-014 -2.78299e-015
rhumerus 13.5973 7.96559 -72.6646
rradius 27.821
rwrist 42.9602
rhand 4.87828 -57.7496
rfingers 7.12502
rthumb 30.2539 -85.2906
lclavicle -1.17283e-014 -2.78299e-015
lhumerus 12.2063 3.71059 79.5634
lradius 27.1578
lwrist -20.6674
lhand -12.5564 -45.4804
lfingers 7.12502
lthumb 13.5207 -15.9393
rfemur -77.3428 3.30291 26.0336
rtibia 92.7995
rfoot -36.5748 -24.5927
rtoes 0.390891
lfemur -79.9134 -0.888768 -22.4738
ltibia 91.6083
lfoot -41.7389 3.46646
ltoes -30.4096
205
root 9.10386 12.1783 22.5552 210.94 -1.7915 -178.489
lowerback 37.8669 1.0295 1.33423
upperback 0.884778 1.15693 0.385206
thorax -18.1902 0.0512058 -0.73286
lowerneck -11.0356 -2.20113 -6.69798
upperneck -20.2739 -4.11695 8.59741
head -3.99424 -3.22893 3.90829
rclavicle 1.21259e-014 3.18055e-015
rhumerus 18.5073 7.45346 -72.1403
rradius 28.204
rwrist 42.1666
rhand 5.35503 -57.3282
rfingers 7.12502
rthumb 30.7085 -84.7848
lclavicle 1.21259e-014 3.18055e-015
lhumerus 17.0379 3.3681 79.2486
lradius 28.0868
lwrist -19.2114
lhand -11.7843 -43.0476
lfingers 7.12502
lthumb 14.2648 -13.5575
rfemur -76.6304 3.43514 25.9322
rtibia 92.5763
rfoot -36.4794 -24.4897
rtoes 0.271288
lfemur -79.3132 -0.943088 -22.3294
ltibia 91.4675
lfoot -41.5084 3.47375
ltoes -30.821
206
root 9.0988 12.1959 22.5334 210.656 -2.02292 -178.402
lowerback 37.1327 0.853583 1.53941
upperback 0.926661 1.03107 0.395791
thorax -17.8427 -0.00297073 -0.770554
lowerneck -11.7056 -2.18601 -6.64507
upperneck -19.5818 -4.07656 8.40698
head -3.69038 -3.16571 3.80067
rclavicle -2.85256e-014 -3.47873e-015
rhumerus 23.1588 6.7818 -71.6662
rradius 28.578
rwrist 41.3616
rhand 5.41522 -57.6033
rfingers 7.12502
rthumb 30.7659 -85.0491
lclavicle -2.85256e-014 -3.47873e-015
lhumerus 22.2703 3.63047 79.2358
lradius 27.957
lwrist -18.6937
lhand -13.2176 -45.3176
lfingers 7.12502
lthumb 12.8834 -15.7353
rfemur -76.1032 3.48416 25.904
rtibia 92.3258
rfoot -36.0822 -24.7282
rtoes -1.03957
lfemur -78.8899 -1.10142 -22.1303
ltibia 91.3289
lfoot -41.0387 3.45647
ltoes -31.0767
207
root 9.09587 12.2361 22.5146 210.408 -2.08378 -178.27
lowerback 36.4643 0.759368 1.46306
upperback 0.978772 0.881175 0.388476
thorax -17.5127 -0.0478866 -0.667012
lowerneck -12.6677 -2.05644 -6.27136
upperneck -18.7845 -3.93924 8.06877
head -3.33016 -3.07536 3.58932
rclavicle 1.15295e-014 6.4605e-016
rhumerus 27.8589 6.38628 -71.1773
rradius 29.025
rwrist 40.5603
rhand 5.31675 -56.5543
rfingers 7.12502
rthumb 30.672 -84.0178
lclavicle 1.15295e-014 6.4605e-016
lhumerus 27.8366 4.40385 79.1978
lradius 27.604
lwrist -18.75
lhand -12.4555 -44.4349
lfingers 7.12502
lthumb 13.618 -14.9003
rfemur -75.4735 3.56675 25.8912
rtibia 91.8978
rfoot -35.6253 -24.7769
rtoes -2.30196
lfemur -78.4471 -1.01108 -22.0267
ltibia 91.0823
lfoot -40.4323 3.53476
ltoes -31.9798
208
root 9.09842 12.2877 22.4919 209.852 -1.9876 -178.03
lowerback 36.2511 0.826817 1.45041
upperback 0.905692 0.98428 0.41883
thorax -17.5147 0.0042053 -0.675982
lowerneck -12.5318 -2.04455 -6.15538
upperneck -18.5894 -3.94164 7.69887
head -3.30517 -3.04603 3.44989
rclavicle -1.75427e-014 -5.81445e-015
rhumerus 32.0799 6.25187 -69.9828
rradius 29.5278
rwrist 39.1098
rhand 4.56595 -58.0219
rfingers 7.12502
rthumb 29.9559 -85.6171
lclavicle -1.75427e-014 -5.81445e-015
lhumerus 35.0507 3.37919 77.423
lradius 25.7558
lwrist -16.2299
lhand -12.1593 -44.9947
lfingers 7.12502
lthumb 13.9034 -15.4795
rfemur -74.3795 3.87312 25.9289
rtibia 91.3755
rfoot -35.5138 -24.4842
rtoes -2.46008
lfemur -77.5471 -0.633465 -21.9272
ltibia 90.8171
lfoot -40.0841 3.77311
ltoes -33.3506
209
root 9.09999 12.3248 22.4601 209.245 -2.0721 -177.803
lowerback 36.09 0.78743 1.6458
upperback 0.884006 1.02662 0.460319
thorax -17.4705 0.0111735 -0.754932
lowerneck -12.1471 -1.99315 -5.36402
upperneck -18.8159 -4.09234 6.58497
head -3.47446 -3.1381 2.98377
rclavicle -1.39149e-015 1.2424e-015
rhumerus 36.5411 6.24558 -68.3357
rradius 29.704
rwrist 37.2048
rhand 2.89502 -57.8261
rfingers 7.12502
rthumb 28.3602 -85.6981
lclavicle -1.39149e-015 1.2424e-015
lhumerus 37.8712 3.00085 76.4551
lradius 27.5219
lwrist -15.8481
lhand -14.3178 -45.6609
lfingers 7.12502
lthumb 11.8226 -16.0146
rfemur -73.2441 4.0649 26.0653
rtibia 90.8866
rfoot -35.603 -24.3352
rtoes -2.41508
lfemur -76.6076 -0.618473 -21.6145
ltibia 90.5964
lfoot -39.8527 3.78319
ltoes -33.3215
210
root 9.09809 12.3708 22.4202 208.81 -2.11688 -177.709
lowerback 35.5746 0.806017 1.80112
upperback 0.900563 1.12557 0.490633
thorax -17.2318 0.0515579 -0.850161
lowerneck -12.7389 -2.18671 -5.71309
upperneck -17.7777 -4.30337 6.33985
head -3.45878 -3.14999 3.16915
rclavicle 0 -7.00716e-015
rhumerus 40.9474 5.82009 -66.4136
rradius 29.9926
rwrist 36.1826
rhand 2.11191 -57.9733
rfingers 7.12502
rthumb 27.6116 -85.9674
lclavicle 0 -7.00716e-015
lhumerus 41.8174 2.59152 75.4356
lradius 29.2375
lwrist -12.7512
lhand -12.6186 -45.0416
lfingers 7.12502
lthumb 13.4608 -15.4965
rfemur -72.2189 4.14085 26.0824
rtibia 90.2948
rfoot -35.3292 -24.5939
rtoes -3.43233
lfemur -75.7726 -0.784337 -21.3678
ltibia 90.2751
lfoot -39.5742 3.34507
ltoes -31.8329
